<svg xmlns="http://www.w3.org/2000/svg" xmlns:xlink="http://www.w3.org/1999/xlink" viewBox="0 0 1920 1080"><defs><style>.cls-1{isolation:isolate;}.cls-2{fill:#5d008a;}.cls-3,.cls-4,.cls-5,.cls-7,.cls-8{opacity:0.7;}.cls-3{fill:url(#radial-gradient);}.cls-4{fill:url(#radial-gradient-2);}.cls-5{fill:url(#radial-gradient-3);}.cls-6{opacity:0.69;}.cls-7{fill:#f9e050;}.cls-7,.cls-8{mix-blend-mode:multiply;}.cls-8{fill:#f89d44;}.cls-9{opacity:0.8;}.cls-10{fill:#fff;}.cls-11{fill:#231f20;}</style><radialGradient id="radial-gradient" cx="960.19" cy="408.62" r="405.53" gradientTransform="translate(570.17 -559.27) rotate(45)" gradientUnits="userSpaceOnUse"><stop offset="0" stop-color="#f9e050" stop-opacity="0"/><stop offset="0.37" stop-color="#f9e050" stop-opacity="0.01"/><stop offset="0.51" stop-color="#f9e050" stop-opacity="0.03"/><stop offset="0.61" stop-color="#f9e050" stop-opacity="0.08"/><stop offset="0.68" stop-color="#f9e050" stop-opacity="0.15"/><stop offset="0.75" stop-color="#f9e050" stop-opacity="0.24"/><stop offset="0.81" stop-color="#f9e050" stop-opacity="0.35"/><stop offset="0.86" stop-color="#f9e050" stop-opacity="0.48"/><stop offset="0.91" stop-color="#f9e050" stop-opacity="0.63"/><stop offset="0.96" stop-color="#f9e050" stop-opacity="0.8"/><stop offset="1" stop-color="#f9e050" stop-opacity="0.98"/><stop offset="1" stop-color="#f9e050"/></radialGradient><radialGradient id="radial-gradient-2" cx="960.19" cy="408.62" r="360.34" gradientTransform="translate(570.17 -559.27) rotate(45)" gradientUnits="userSpaceOnUse"><stop offset="0" stop-color="#f9a250" stop-opacity="0"/><stop offset="0.12" stop-color="#f9a250" stop-opacity="0.02"/><stop offset="0.25" stop-color="#f9a250" stop-opacity="0.07"/><stop offset="0.37" stop-color="#f9a250" stop-opacity="0.15"/><stop offset="0.51" stop-color="#f9a250" stop-opacity="0.27"/><stop offset="0.64" stop-color="#f9a250" stop-opacity="0.43"/><stop offset="0.77" stop-color="#f9a250" stop-opacity="0.61"/><stop offset="0.91" stop-color="#f9a250" stop-opacity="0.83"/><stop offset="1" stop-color="#f9a250"/></radialGradient><radialGradient id="radial-gradient-3" cx="960.19" cy="408.62" r="300.88" gradientUnits="userSpaceOnUse"><stop offset="0" stop-color="#f9e050" stop-opacity="0"/><stop offset="0.27" stop-color="#f9e050" stop-opacity="0.01"/><stop offset="0.41" stop-color="#f9e050" stop-opacity="0.04"/><stop offset="0.51" stop-color="#f9e050" stop-opacity="0.09"/><stop offset="0.61" stop-color="#f9e050" stop-opacity="0.17"/><stop offset="0.69" stop-color="#f9e050" stop-opacity="0.27"/><stop offset="0.77" stop-color="#f9e050" stop-opacity="0.39"/><stop offset="0.84" stop-color="#f9e050" stop-opacity="0.54"/><stop offset="0.91" stop-color="#f9e050" stop-opacity="0.71"/><stop offset="0.97" stop-color="#f9e050" stop-opacity="0.89"/><stop offset="1" stop-color="#f9e050"/></radialGradient></defs><g class="cls-1"><g id="Layer_1" data-name="Layer 1"><rect class="cls-2" x="0.5" y="0.5" width="1919" height="1079"/><path d="M1919,1V1079H1V1H1919m1-1H0V1080H1920V0Z"/><circle class="cls-3" cx="960.19" cy="408.62" r="405.53" transform="translate(-7.71 798.64) rotate(-45)"/><circle class="cls-4" cx="960.19" cy="408.62" r="360.34" transform="translate(-7.71 798.64) rotate(-45)"/><circle class="cls-5" cx="960.19" cy="408.62" r="300.88"/><g class="cls-6"><path class="cls-7" d="M960.19,49.46S910.57,102.18,910.57,229s49.62,179.58,49.62,179.58,49.62-52.72,49.62-179.58S960.19,49.46,960.19,49.46Z"/><path class="cls-7" d="M601,408.62s52.72,49.62,179.58,49.62,179.58-49.62,179.58-49.62S907.47,359,780.61,359,601,408.62,601,408.62Z"/><path class="cls-7" d="M960.19,767.78s49.62-52.72,49.62-179.58-49.62-179.58-49.62-179.58-49.62,52.72-49.62,179.58S960.19,767.78,960.19,767.78Z"/><path class="cls-7" d="M1319.35,408.62S1266.63,359,1139.77,359s-179.58,49.62-179.58,49.62,52.72,49.62,179.58,49.62S1319.35,408.62,1319.35,408.62Z"/><path class="cls-7" d="M1191.07,177.74s-65.79,2-147.34,83.54-83.54,147.34-83.54,147.34,65.79-2,147.34-83.54S1191.07,177.74,1191.07,177.74Z"/><path class="cls-7" d="M729.31,177.74s2,65.79,83.54,147.34,147.34,83.54,147.34,83.54-2-65.79-83.54-147.34S729.31,177.74,729.31,177.74Z"/><path class="cls-7" d="M729.31,639.5s65.79-2,147.34-83.54,83.54-147.34,83.54-147.34-65.79,2-147.34,83.54S729.31,639.5,729.31,639.5Z"/><path class="cls-7" d="M1191.07,639.5s-2-65.79-83.54-147.34-147.34-83.54-147.34-83.54,2,65.79,83.54,147.34S1191.07,639.5,1191.07,639.5Z"/><path class="cls-8" d="M1070.13,143.19S1017.32,167,978.49,260.72s-18.3,147.9-18.3,147.9,52.81-23.77,91.64-117.52S1070.13,143.19,1070.13,143.19Z"/><path class="cls-8" d="M694.76,298.68s23.77,52.81,117.52,91.64,147.91,18.3,147.91,18.3S936.42,355.81,842.66,317,694.76,298.68,694.76,298.68Z"/><path class="cls-8" d="M850.24,674.05s52.82-23.77,91.65-117.52,18.3-147.91,18.3-147.91-52.81,23.78-91.65,117.53S850.24,674.05,850.24,674.05Z"/><path class="cls-8" d="M1225.62,518.57s-23.78-52.82-117.53-91.65-147.9-18.3-147.9-18.3,23.77,52.81,117.52,91.65S1225.62,518.57,1225.62,518.57Z"/><path class="cls-8" d="M1225.62,298.68s-54.16-20.54-147.91,18.3-117.52,91.64-117.52,91.64,54.15,20.53,147.9-18.3S1225.62,298.68,1225.62,298.68Z"/><path class="cls-8" d="M850.24,143.19s-20.53,54.16,18.3,147.91,91.65,117.52,91.65,117.52,20.53-54.15-18.3-147.9S850.24,143.19,850.24,143.19Z"/><path class="cls-8" d="M694.76,518.57s54.15,20.53,147.9-18.3,117.53-91.65,117.53-91.65S906,388.09,812.28,426.92,694.76,518.57,694.76,518.57Z"/><path class="cls-8" d="M1070.13,674.05s20.54-54.15-18.3-147.9-91.64-117.53-91.64-117.53-20.53,54.16,18.3,147.91S1070.13,674.05,1070.13,674.05Z"/></g><g class="cls-9"><polygon class="cls-10" points="960.19 67.7 960.67 152.93 960.96 238.16 961.19 408.62 960.96 579.08 960.68 664.31 960.19 749.54 959.7 664.31 959.42 579.08 959.19 408.62 959.42 238.16 959.7 152.93 960.19 67.7"/><polygon class="cls-10" points="1301.11 408.62 1215.88 409.11 1130.65 409.39 960.19 409.62 789.73 409.39 704.5 409.11 619.27 408.62 704.5 408.13 789.73 407.85 960.19 407.62 1130.65 407.86 1215.88 408.13 1301.11 408.62"/><polygon class="cls-10" points="900.99 72.88 916.27 156.73 931.34 240.62 961.17 408.45 990.55 576.36 1005.07 660.34 1019.39 744.36 1004.11 660.51 989.03 576.62 959.21 408.8 929.84 240.89 915.31 156.9 900.99 72.88"/><polygon class="cls-10" points="1295.93 349.42 1212.08 364.7 1128.19 379.78 960.36 409.61 792.45 438.98 708.47 453.5 624.45 467.82 708.3 452.54 792.19 437.46 960.02 407.64 1127.92 378.27 1211.91 363.74 1295.93 349.42"/><polygon class="cls-10" points="843.59 88.26 873.2 168.19 902.61 248.18 961.13 408.28 1019.21 568.54 1048.1 648.72 1076.79 728.98 1047.18 649.06 1017.77 569.06 959.25 408.96 901.17 248.71 872.28 168.52 843.59 88.26"/><polygon class="cls-10" points="1280.55 292.02 1200.62 321.63 1120.63 351.04 960.53 409.56 800.27 467.64 720.09 496.53 639.83 525.22 719.75 495.61 799.75 466.2 959.85 407.68 1120.11 349.6 1200.29 320.71 1280.55 292.02"/><polygon class="cls-10" points="789.73 113.38 832.77 186.95 875.62 260.62 961.05 408.12 1046.08 555.86 1088.46 629.81 1130.65 703.86 1087.61 630.3 1044.75 556.63 959.32 409.12 874.3 261.38 831.92 187.43 789.73 113.38"/><polygon class="cls-10" points="1255.43 238.16 1181.86 281.2 1108.19 324.06 960.69 409.49 812.95 494.52 739 536.89 664.95 579.08 738.51 536.04 812.18 493.18 959.69 407.76 1107.43 322.73 1181.38 280.36 1255.43 238.16"/><polygon class="cls-10" points="741.05 147.46 796.21 212.44 851.21 277.55 960.95 407.98 1070.35 538.71 1124.92 604.17 1179.33 669.78 1124.17 604.8 1069.17 539.7 959.42 409.26 850.03 278.54 795.46 213.07 741.05 147.46"/><polygon class="cls-10" points="1221.35 189.48 1156.37 244.64 1091.26 299.64 960.83 409.39 830.11 518.78 764.64 573.35 699.03 627.76 764.01 572.6 829.12 517.6 959.55 407.86 1090.28 298.47 1155.74 243.9 1221.35 189.48"/><polygon class="cls-10" points="699.03 189.48 764.63 243.9 830.1 298.47 960.83 407.86 1091.26 517.6 1156.37 572.6 1221.35 627.76 1155.74 573.35 1090.27 518.78 959.55 409.39 829.12 299.64 764.01 244.64 699.03 189.48"/><polygon class="cls-10" points="1179.33 147.46 1124.91 213.07 1070.34 278.54 960.95 409.26 851.21 539.7 796.21 604.8 741.05 669.78 795.46 604.17 850.03 538.71 959.42 407.98 1069.17 277.55 1124.17 212.44 1179.33 147.46"/><polygon class="cls-10" points="664.95 238.16 739 280.36 812.95 322.73 960.69 407.76 1108.19 493.18 1181.87 536.04 1255.43 579.08 1181.38 536.89 1107.43 494.52 959.69 409.49 812.18 324.06 738.51 281.2 664.95 238.16"/><polygon class="cls-10" points="1130.65 113.38 1088.45 187.43 1046.08 261.38 961.05 409.12 875.63 556.63 832.77 630.3 789.73 703.86 831.92 629.81 874.29 555.86 959.32 408.12 1044.76 260.62 1087.61 186.95 1130.65 113.38"/><polygon class="cls-10" points="639.83 292.02 720.09 320.71 800.27 349.6 960.53 407.68 1120.63 466.2 1200.62 495.61 1280.55 525.22 1200.29 496.53 1120.11 467.64 959.85 409.56 799.75 351.04 719.75 321.63 639.83 292.02"/><polygon class="cls-10" points="1076.79 88.26 1048.1 168.52 1019.21 248.71 961.13 408.96 902.61 569.06 873.2 649.06 843.59 728.98 872.28 648.72 901.17 568.54 959.25 408.28 1017.77 248.18 1047.18 168.19 1076.79 88.26"/><polygon class="cls-10" points="624.45 349.42 708.47 363.74 792.45 378.27 960.36 407.64 1128.19 437.46 1212.08 452.54 1295.93 467.82 1211.91 453.5 1127.92 438.98 960.02 409.61 792.19 379.78 708.3 364.7 624.45 349.42"/><polygon class="cls-10" points="1019.39 72.88 1005.07 156.9 990.54 240.89 961.17 408.8 931.35 576.62 916.27 660.51 900.99 744.36 915.31 660.34 929.83 576.36 959.21 408.45 989.03 240.62 1004.11 156.73 1019.39 72.88"/><polygon class="cls-10" points="932.22 88.94 939.7 168.82 946.97 248.72 961.18 408.53 974.94 568.39 981.65 648.34 988.16 728.3 980.68 648.42 973.41 568.53 959.19 408.71 945.44 248.85 938.73 168.9 932.22 88.94"/><polygon class="cls-10" points="1279.87 380.65 1199.99 388.13 1120.1 395.4 960.28 409.62 800.42 423.37 720.47 430.08 640.51 436.59 720.39 429.11 800.28 421.84 960.1 407.63 1119.96 393.87 1199.91 387.16 1279.87 380.65"/><polygon class="cls-10" points="877.13 98.66 898.37 176.02 919.4 253.44 961.15 408.36 1002.46 563.4 1022.95 640.97 1043.24 718.59 1022.01 641.22 1000.97 563.8 959.22 408.88 917.92 253.84 897.43 176.27 877.13 98.66"/><polygon class="cls-10" points="1270.16 325.57 1192.79 346.8 1115.37 367.83 960.45 409.59 805.4 450.89 727.84 471.38 650.22 491.68 727.59 470.44 805.01 449.41 959.93 407.66 1114.97 366.35 1192.54 345.86 1270.16 325.57"/><polygon class="cls-10" points="824.57 117.79 858.92 190.29 893.07 262.88 961.09 408.2 1028.7 553.71 1062.35 626.54 1095.81 699.46 1061.46 626.95 1027.3 554.36 959.28 409.04 891.69 263.53 858.03 190.7 824.57 117.79"/><polygon class="cls-10" points="1251.02 273 1178.52 307.35 1105.93 341.51 960.61 409.53 815.1 477.13 742.27 510.78 669.35 544.24 741.86 509.89 814.45 475.73 959.77 407.72 1105.28 340.12 1178.11 306.47 1251.02 273"/><polygon class="cls-10" points="776.13 145.75 822.54 211.19 868.79 276.75 961.01 408.05 1052.85 539.61 1098.64 605.49 1144.25 671.49 1097.83 606.05 1051.59 540.5 959.37 409.19 867.53 277.63 821.75 211.75 776.13 145.75"/><polygon class="cls-10" points="1223.06 224.56 1157.62 270.97 1092.06 317.22 960.76 409.44 829.2 501.28 763.32 547.07 697.32 592.68 762.76 546.27 828.32 500.02 959.62 407.8 1091.18 315.96 1157.06 270.18 1223.06 224.56"/><polygon class="cls-10" points="733.28 181.71 790.35 238.09 847.27 294.62 960.89 407.92 1074.19 521.53 1130.72 578.46 1187.1 635.53 1130.03 579.15 1073.1 522.62 959.48 409.33 846.19 295.71 789.66 238.78 733.28 181.71"/><polygon class="cls-10" points="1187.1 181.71 1130.72 238.78 1074.19 295.71 960.89 409.33 847.28 522.62 790.35 579.15 733.28 635.53 789.66 578.46 846.19 521.53 959.48 407.92 1073.1 294.62 1130.03 238.09 1187.1 181.71"/><polygon class="cls-10" points="697.32 224.56 763.32 270.18 829.2 315.96 960.76 407.8 1092.06 500.02 1157.62 546.27 1223.06 592.68 1157.06 547.07 1091.18 501.28 959.62 409.44 828.32 317.22 762.76 270.97 697.32 224.56"/><polygon class="cls-10" points="1144.25 145.75 1098.63 211.75 1052.85 277.63 961.01 409.19 868.79 540.5 822.54 606.05 776.13 671.49 821.74 605.49 867.53 539.61 959.37 408.05 1051.59 276.75 1097.84 211.19 1144.25 145.75"/><polygon class="cls-10" points="669.35 273 742.27 306.47 815.1 340.12 960.61 407.72 1105.93 475.73 1178.52 509.89 1251.02 544.24 1178.11 510.78 1105.28 477.13 959.77 409.53 814.45 341.51 741.86 307.35 669.35 273"/><polygon class="cls-10" points="1095.81 117.79 1062.34 190.7 1028.69 263.53 961.09 409.04 893.08 554.36 858.92 626.95 824.57 699.46 858.03 626.54 891.68 553.71 959.28 408.2 1027.3 262.88 1061.46 190.29 1095.81 117.79"/><polygon class="cls-10" points="650.22 325.57 727.84 345.86 805.4 366.35 960.45 407.66 1115.37 449.41 1192.79 470.44 1270.16 491.68 1192.54 471.38 1114.97 450.89 959.93 409.59 805.01 367.83 727.59 346.8 650.22 325.57"/><polygon class="cls-10" points="1043.24 98.66 1022.95 176.27 1002.46 253.84 961.15 408.88 919.4 563.8 898.37 641.22 877.13 718.59 897.42 640.97 917.92 563.4 959.22 408.36 1000.98 253.44 1022.01 176.02 1043.24 98.66"/><polygon class="cls-10" points="640.51 380.65 720.47 387.16 800.42 393.87 960.28 407.63 1120.1 421.84 1199.99 429.11 1279.87 436.59 1199.91 430.08 1119.96 423.37 960.1 409.62 800.28 395.4 720.39 388.13 640.51 380.65"/><polygon class="cls-10" points="988.16 88.94 981.65 168.9 974.94 248.85 961.18 408.71 946.97 568.53 939.7 648.42 932.22 728.3 938.73 648.34 945.44 568.39 959.19 408.53 973.41 248.72 980.68 168.82 988.16 88.94"/></g><path class="cls-11" d="M972.72,158.48C971.94,131,960.16,124,960.16,124s-11.77,7.06-12.55,34.53c0,0-26.69,54.15,0,68.28,0,0,5.49,5.5,12.55,3.93,7.07,1.57,12.56-3.93,12.56-3.93C999.41,212.63,972.72,158.48,972.72,158.48Z"/><path class="cls-11" d="M1042.31,372c9.42-9.94-.52-16.74-.52-16.74,11.51-10.46,1.53-18.31,1.53-18.31,14.61-16.22-3.53-22.5-3.53-22.5,9.52-12-3.24-16.74-3.24-16.74,9.42-12.56-4.71-13.61-4.71-13.61,2.1-17.26-13.08-11.51-13.08-11.51-.52-19.88-14.12-11.51-14.12-11.51,3.14-15.69-10.47-8.37-10.47-8.37,7.85-16.74-4.18-16.22-4.18-16.22-1.57-18.31-16.48-9.68-16.48-9.68-5-5.49-12.56,3.93-12.56,3.93s-8.37-9.42-13.34-3.93c0,0-14.92-8.63-16.48,9.68,0,0-12-.52-4.19,16.22,0,0-13.6-7.32-10.46,8.37,0,0-13.61-8.37-14.13,11.51,0,0-15.18-5.75-13.08,11.51,0,0-14.13,1.05-4.71,13.61,0,0-12.75,4.71-3.24,16.74,0,0-18.14,6.28-3.53,22.5,0,0-10,7.85,1.54,18.31,0,0-9.94,6.8-.53,16.74,0,0-13.6,7.33,1.05,33.49,0,0,8.37,15.17,7.32,39.76s8.9,35.06,16.22,29.83,12-12.56,18.32-9.42c0,0,7.85,28.78-.53,40.81h78.75c-8.37-12-.52-40.81-.52-40.81,6.27-3.14,11,4.19,18.31,9.42s17.26-5.23,16.22-29.83,7.32-39.76,7.32-39.76C1055.91,379.28,1042.31,372,1042.31,372Z"/><path class="cls-11" d="M1002.81,489.15l5.75,17.27c15.7,14.65,96.27,34,96.27,34,29.3,35.06,61.74,199.35,63.31,220.8S1154,813,1154,813c-3.67,24.59,2.61,50.75,14.12,68s72.21,35.58,115.63,54.94,14.13,96.8,14.13,96.8c-20.93,48.13-139.18,42.9-165.34,35.58s-142.83-12-160.62-11-22,10.46-22,10.46c-37.15,9.42-104.64-5.23-104.64-5.23-30.87-6.28-20.93,1.57-108.31,0s-104.64-30.87-115.11-43.95-15.69-43.43,5.76-88.42S816,867.44,816,867.44,797.18,857,762.13,826.63s-36.63-50.23-35.06-64.88,40.29-100.46,47.09-119.29,27.73-72.21,38.19-86.86,78-36.62,95.75-43.42a38.38,38.38,0,0,0,22.5-23ZM847.93,690.59s-39.76,46.57-44.47,71.68c0,0,20.41,39.25,64.36,83.2,0,0,9.94-17.79,4.7-73.78S858.4,690.59,847.93,690.59Z"/></g></g></svg>